<svg width="24" height="17" viewBox="0 0 24 17" fill="none" xmlns="http://www.w3.org/2000/svg">
<path d="M12.0783 5.52603C11.2661 5.52603 10.4872 5.84869 9.91283 6.42302C9.3385 6.99735 9.01585 7.77631 9.01585 8.58853C9.01585 9.40076 9.3385 10.1797 9.91283 10.754C10.4872 11.3284 11.2661 11.651 12.0783 11.651C12.8906 11.651 13.6695 11.3284 14.2439 10.754C14.8182 10.1797 15.1408 9.40076 15.1408 8.58853C15.1408 7.77631 14.8182 6.99735 14.2439 6.42302C13.6695 5.84869 12.8906 5.52603 12.0783 5.52603ZM12.0783 13.6927C10.7246 13.6927 9.42638 13.1549 8.46916 12.1977C7.51194 11.2405 6.97418 9.94224 6.97418 8.58853C6.97418 7.23482 7.51194 5.93656 8.46916 4.97934C9.42638 4.02212 10.7246 3.48436 12.0783 3.48436C13.4321 3.48436 14.7303 4.02212 15.6875 4.97934C16.6448 5.93656 17.1825 7.23482 17.1825 8.58853C17.1825 9.94224 16.6448 11.2405 15.6875 12.1977C14.7303 13.1549 13.4321 13.6927 12.0783 13.6927ZM12.0783 0.932281C6.97418 0.932281 2.61522 4.10707 0.849182 8.58853C2.61522 13.07 6.97418 16.2448 12.0783 16.2448C17.1825 16.2448 21.5415 13.07 23.3075 8.58853C21.5415 4.10707 17.1825 0.932281 12.0783 0.932281Z" fill="white"/>
</svg>
