<svg width="12" height="16" viewBox="0 0 12 16" fill="none" xmlns="http://www.w3.org/2000/svg">
<path d="M1.49988 2H5.24988V8L3.37488 6.875L1.49988 8V2ZM10.4999 0.5H1.49988C1.10205 0.5 0.720522 0.658035 0.439218 0.93934C0.157913 1.22064 -0.00012207 1.60218 -0.00012207 2V14C-0.00012207 14.3978 0.157913 14.7794 0.439218 15.0607C0.720522 15.342 1.10205 15.5 1.49988 15.5H10.4999C10.8977 15.5 11.2792 15.342 11.5605 15.0607C11.8418 14.7794 11.9999 14.3978 11.9999 14V2C11.9999 1.60218 11.8418 1.22064 11.5605 0.93934C11.2792 0.658035 10.8977 0.5 10.4999 0.5Z" fill="#7F78A7"/>
</svg>
